<svg width="160" height="160" viewBox="0 0 1000 1000" fill="none" xmlns="http://www.w3.org/2000/svg">
  <!-- Formas verdes como en la imagen original -->
  <path fill="#4ADE80" d="M570.41 248.56l-276.83 36.46 47.4-49.48 245.49-39.92 261.36 28.1-554.24 74.42 0.59 1.69z" fill-opacity="0.9"/>

  <!-- Cuerpo del pájaro negro -->
  <path fill="black" d="M592.42 73.93h0c0 0 116.72-74 116.72-74h-223.25c-56.76 0-102.76 46.88-102.76 104.69 0 0 0.59 25.36 0.59 25.36 0 0 1.63 52.95-100 52.95 0 0 7.9 127.75 134.48 151.71 0 0-10 47.92-10 47.92 0 0 61 -16.7 61-16.7 -0.29 0.62 -0.14 -13.84 0.06 -27.53 4.28 -0.19 8.39 -0.56 12.42 -1.04 0.21 13.77 0.36 28.61 0.06 27.97 0 0 1.92 0.52 1.92 0.52 3.01 -2.61 6.13 -5.07 9.22 -7.33 11.37 -8.26 23.76 -15.17 36.52 -21 1.55 -0.71 2.93 -0.48 4 0.25 0 0 -3.42 -16.36 -3.42 -16.36 72.16 -43.52 66.35 -157.52 62.11 -195.92 -0.55 -9.48 -1.57 -32.46 0.3 -51.56 0 -0.04 -0.02 -0.08 -0.02 -0.08z"/>

  <!-- Ojo blanco -->
  <circle cx="480.28" cy="93" r="72" fill="white"/>
  
  <!-- Pupila negra -->
  <circle cx="480.29" cy="93" r="53" fill="black"/>
  
  <!-- Alas verdes y negras -->
  <path fill="#22C55E" d="M227.57 368.84l13.43-22.92 552.27-126.81-497.1 231.44-68.6-81.71z" fill-opacity="0.8"/>
  <path fill="#4ADE80" d="M248.67 420.64l583.73-194.93-737.06 196.58 153.33-1.65z" fill-opacity="0.8"/>
</svg> 