<svg width="120" height="35" viewBox="0 0 120 35" fill="none" xmlns="http://www.w3.org/2000/svg">
  <path d="M17.5 7C17.5 3.13401 20.634 0 24.5 0H35V35H24.5C20.634 35 17.5 31.866 17.5 28V7Z" fill="#B3E146"/>
  <path d="M0 7C0 3.13401 3.13401 0 7 0H17.5V35H7C3.13401 35 0 31.866 0 28V7Z" fill="#4ADE80"/>
  <path d="M50 10.5H45V13H47.5V25H50V10.5Z" fill="black"/>
  <path d="M53 10.5H58C60.5 10.5 62.5 12.5 62.5 15C62.5 17.5 60.5 19.5 58 19.5H55.5V25H53V10.5ZM58 17C59 17 60 16 60 15C60 14 59 13 58 13H55.5V17H58Z" fill="black"/>
  <path d="M65 10.5H70C72.5 10.5 74.5 12.5 74.5 15C74.5 17.5 72.5 19.5 70 19.5H67.5V25H65V10.5ZM70 17C71 17 72 16 72 15C72 14 71 13 70 13H67.5V17H70Z" fill="black"/>
  <path d="M80 13H75V10.5H87.5V13H82.5V25H80V13Z" fill="black"/>
  <path d="M90 10.5H93V15.5H97V10.5H100V25H97V18H93V25H90V10.5Z" fill="black"/>
  <path d="M105 10.5H108V13H110.5C112.5 13 114 14.5 114 16.5V19C114 21 112.5 22.5 110.5 22.5H105V10.5ZM110.5 20C111 20 111.5 19.5 111.5 19V16.5C111.5 16 111 15.5 110.5 15.5H108V20H110.5Z" fill="black"/>
</svg> 